<?xml version="1.0" encoding="UTF-8"?>
<svg id="Layer_2" data-name="Layer 2" xmlns="http://www.w3.org/2000/svg" viewBox="0 0 393.11 332.84">
  <defs>
    <style>
      .cls-1 {
        fill: #ddbfad;
        stroke-width: 0px;
      }
    </style>
  </defs>
  <g id="Layer_1-2" data-name="Layer 1">
    <path class="cls-1" d="m.65,180.6c0-12.33-.64-24.7.16-36.97,1.09-16.84,6.54-32.56,14.51-47.46,6.58-12.29,12.55-24.89,21.3-35.93,3.86-4.87,8.6-8.59,13.23-12.54,5.68-4.85,11.23-9.86,17.07-14.5,9.3-7.39,20.21-11.86,31.23-15.78,15.49-5.51,31.19-10.44,46.87-15.4,6.96-2.2,14.1-2.53,21.4-1.34,12.01,1.95,24.07,3.56,36.11,5.25,13.95,1.95,27,6.85,39.81,12.39,24.79,10.73,49.46,21.72,74.43,32.04,9.13,3.77,17.55,8.84,25.35,14.97,7.43,5.85,16.02,10.12,23.01,16.58,7.67,7.09,14.51,14.91,17.67,25.05,1.24,3.99,2.83,7.66,4.99,11.14,2.32,3.73,1.38,8.02,2.24,12.01,1.93,8.88,2.29,17.98,2.96,27.01.64,8.59-1.38,17.05-2.82,25.5-1.87,11.01-3.55,22.07-5.94,32.97-2.61,11.9-6.3,23.51-11.64,34.55-2.47,5.12-3.42,10.94-7.52,15.32-1.07,1.15-.72,2.96.63,4.02,2.67,2.09,2.29,4.8,1.65,7.5-2.51,10.58-8.77,18.55-17.48,24.75-5.79,4.12-10.92,9.08-16.48,13.4-8.24,6.4-17.51,11.45-28.43,12.19-8.06.55-15.99,2.31-24.01,3.14-14.91,1.56-29.78,3.5-44.9,1.54-12.44-1.61-24.76-4.03-37.24-5.26-6.05-.59-12.17-.29-18.19-1.5-15.39-3.09-30.53-7.02-45.08-13.02-16.34-6.74-33.24-12.08-49.39-19.28-15.95-7.1-31.85-14.54-45.28-25.84-15.9-13.38-30.11-28.39-37.63-48.39-1.89-5.03-2.84-10.29-2.7-15.73.19-7.47-1.36-14.9.13-22.39Z"/>
  </g>
</svg>