<?xml version="1.0" encoding="UTF-8"?>
<svg id="Layer_2" data-name="Layer 2" xmlns="http://www.w3.org/2000/svg" viewBox="0 0 329.13 268.18">
  <defs>
    <style>
      .cls-1 {
        fill: #788255;
        stroke-width: 0px;
      }
    </style>
  </defs>
  <g id="Layer_1-2" data-name="Layer 1">
    <path class="cls-1" d="m328.8,126.99c.78,13.44.31,27.91-2.71,42.06-1.64,7.69-2.21,15.8-6.2,22.91-.87,1.55-.19,2.79,1.15,3.43,2.41,1.16,2.47,3.13,2.37,5.35-.31,6.51-2.12,12.54-6.05,17.77-5.53,7.37-12.04,13.95-18.1,20.85-6.06,6.91-14.11,11.58-23.54,13.7-9.83,2.2-19.22,6.06-28.97,8.7-12.17,3.3-24.47,4.83-36.98,4.51-12-.3-23.83,2-35.79,1.91-15.11-.11-29.94-2.47-44.7-5.63-15.81-3.39-31.78-6.03-47.4-10.39-22.18-6.19-41.84-16.61-58.12-33.06-7.98-8.07-13.28-17.36-15.72-28.71-2.93-13.66-4.78-27.47-6.92-41.23-2.72-17.49-.34-34.49,5.67-51.07,2.88-7.95,4.69-16.27,8.83-23.77,11.67-21.14,27-38.78,48.48-50.46,11.06-6.02,22.26-11.78,33.35-17.76,7.09-3.82,14.64-5.38,22.65-5.35,11.7.04,23.38-1.16,35.11-.59,12.43.61,24.35,3.73,36.35,6.57,19.99,4.74,40.17,8.85,59.87,14.62,19.14,5.6,37.5,13.49,52.93,26.77.94.81,1.8,1.72,2.61,2.66,4.73,5.49,8.12,11.95,11.74,18.08,3.26,5.52,4.05,12.47,6.11,18.73,4.11,12.51,4.36,25.4,3.99,39.39Z"/>
  </g>
</svg>