<?xml version="1.0" encoding="UTF-8"?>
<svg id="Layer_2" data-name="Layer 2" xmlns="http://www.w3.org/2000/svg" viewBox="0 0 388.41 561.08">
  <defs>
    <style>
      .cls-1 {
        fill: #616d39;
        stroke-width: 0px;
      }
    </style>
  </defs>
  <g id="Layer_1-2" data-name="Layer 1">
    <path class="cls-1" d="m388.13,503.94c.42,11.69-3.31,24.49-6.6,37.42-2.36,9.28-8.7,13.68-17.23,15.45-6.06,1.26-11.96,3.16-18.16,3.96-12.63,1.63-22.55-3.37-31.46-11.49-2.03-1.85-3.92-3.87-6.09-5.53-3.61-2.76-6.49-5.97-8.98-9.84-3.33-5.17-9.13-7.57-14.32-10.51-8.01-4.55-16.4-8.47-23.7-14.2-.78-.61-1.6-1.22-2.25-1.95-8.37-9.44-17.47-18.1-27.2-26.15-10.84-8.96-18.61-20.52-25.08-32.72-6.16-11.63-13.38-22.39-21.3-32.82-6.17-8.13-11.51-16.84-16.74-25.63-8.52-14.34-20.82-25.44-33.21-36.22-9.14-7.96-18.23-15.95-26.11-25.11-5.19-6.03-11.93-9.81-18.24-14.06-6-4.04-11.88-8.24-17.47-12.76-13.06-10.58-26.77-20.56-36.89-34.27-6.07-8.23-13.88-15.61-16.49-25.81-4.69-18.33-12.7-35.7-15.71-54.46-1.18-7.36-2.57-14.7-2.94-22.21-.18-3.66-1.95-7.2-1.99-10.97-.14-14.63,2.52-28.22,12.15-40.11,12.46-15.4,27.67-25.79,47.21-30.1,9.7-2.14,18.98-6.14,29.04-6.86,6.47-.47,12.97-.58,19.4-1.35,9.51-1.14,18.28-4.69,26.72-9.11,8.5-4.45,17.13-8.62,26.14-11.93,11.18-4.11,19.73-11.96,28.41-19.67,7.56-6.72,15.35-13.23,24.18-18.15,8.55-4.77,17.37-9.11,26.8-12.07C245.59,2.95,250.76-.05,256.83,0c15.09.12,26.85,7.15,36.2,18.24,7.29,8.65,12.87,18.26,16.71,29.26,6.88,19.72,16.32,38.47,24.64,57.65,3.17,7.32,6.49,14.57,7.39,22.64.17,1.55.97,3.08,1.66,4.53,2.89,6.03,4.4,12.36,4.99,19.03.33,3.69,1.6,7.29,2.2,10.97,1.76,10.9-.48,21.61-1.97,32.31-1.24,8.87-4.72,17.26-6.13,26.15-.76,4.82-3.03,9.19-5.87,13.22-5.07,7.2-7.41,15.39-8.74,24-2.46,16-5.65,31.91-7.53,47.98-2.51,21.5-2.35,43.05,2.5,64.33.38,1.68,1.06,3.34,1.87,4.86,5.92,11.1,11.9,22.16,20.31,31.66.16.19.32.38.46.59,15.82,24.53,33.36,48.13,41.18,76.95,1.38,5.07,2.17,10.62,1.44,19.56Z"/>
  </g>
</svg>