<?xml version="1.0" encoding="UTF-8"?>
<svg id="Layer_2" data-name="Layer 2" xmlns="http://www.w3.org/2000/svg" viewBox="0 0 389.68 374.86">
  <defs>
    <style>
      .cls-1 {
        fill: #ded5c8;
        stroke-width: 0px;
      }
    </style>
  </defs>
  <g id="Layer_1-2" data-name="Layer 1">
    <path class="cls-1" d="m59.3,374.75c-12.06.8-22.6-2.65-30.27-12.21-5.76-7.17-10.46-15.15-15.12-23.09-3.78-6.44-7.92-12.7-10.73-19.65-4.48-11.06-3.53-22.46-1.41-33.79,3.06-16.38,7.03-32.52,13.17-48.09,5.48-13.9,13.24-26.45,21.83-38.56,16.42-23.14,32.35-46.62,46.95-70.97,11.71-19.53,25.18-37.69,42.05-53.09,9.29-8.47,19.53-15.73,30.13-22.53,12.98-8.33,25.19-17.77,37.48-27.09,8.81-6.68,17.27-13.86,27.2-18.99,17.25-8.91,34.6-8.54,52.16-1.07,8.82,3.75,17.84,7.06,26.52,11.09,22.26,10.32,39.52,26.58,53.59,46.37,14.24,20.02,24.86,41.92,33.38,64.91,5.63,15.2,3.76,30.04-1.46,44.8-4.9,13.84-11.91,26.52-21.17,37.95-5.5,6.8-11.95,12.67-18.43,18.44-3.9,3.47-7.61,7.15-11.54,10.6-10.65,9.37-20.75,19.36-31.36,28.79-16.25,14.45-32.07,29.45-50.32,41.48-25.3,16.68-52.49,29.57-80.92,39.91-27.19,9.89-55.37,15.95-83.77,21.09-9.27,1.68-18.41,4.38-27.99,3.7Z"/>
  </g>
</svg>