<?xml version="1.0" encoding="UTF-8"?>
<svg id="Layer_2" data-name="Layer 2" xmlns="http://www.w3.org/2000/svg" viewBox="0 0 437.5 181.29">
  <defs>
    <style>
      .cls-1 {
        fill: #e1d8ce;
        stroke-width: 0px;
      }
    </style>
  </defs>
  <g id="Layer_1-2" data-name="Layer 1">
    <path class="cls-1" d="m390.13,121.21c-.13,5.34.75,10.74-.82,16.01-.68,2.29-1.27,5.16-4.12,5.11-3.13-.05-6.57-1.3-7.43-4.69-1.5-5.91-2.26-11.96.79-17.8.91-1.75,1.64-3.67,2.02-5.6,1.55-8.06,5.35-15.12,10.27-21.42,6.17-7.9,14.22-12.97,24.78-11.98,13.54,1.27,19.36,7.71,21.25,21.31,2.42,17.48-2.19,33.09-11.31,47.69-7.61,12.18-18.55,18.42-33.09,19.21-11.75.65-22.76-2.08-33.76-5.33-19.02-5.62-38-11.19-57.49-15.2-13.03-2.68-26.04-4.19-39.21-5.17-8.95-.66-17.88-1.96-26.83-2-11.96-.05-23.97.56-35.52,4.22-17.97,5.68-35.86,11.61-53.87,17.12-7.26,2.22-14.75,3.79-22.2,5.32-16.28,3.35-31.81,9.49-48.18,12.51-5.77,1.07-11.37,1.24-16.94-.81-10.99-4.05-15.29-11.13-15.76-25.04-.54-16.33,7.49-28.95,20.24-38.51,12.14-9.1,25.29-16.38,39.86-21.06,9.05-2.91,18.46-2.74,27.67-4.16,10.45-1.62,20.18,2.43,30.2,4.13,15.15,2.57,29.75,7.9,44.88,10.16,18.55,2.77,36.68-.19,51.35-12.93,11.92-10.35,18.23-24.15,19.35-40.09.2-2.92-1.07-4.91-3.46-6.55-11.49-7.86-22.96-7.11-34.4-.05-5.33,3.29-10.17,7.16-14.09,12.16-5.32,6.8-11.47,12.83-18.11,18.34-18.93,15.7-45.26,12.37-59.46-7.67-7.53-10.63-13.28-22.22-17.71-34.49-3.16-8.76-8.16-16.53-14-23.75-2.19-2.71-4.87-3.42-8.33-2.73-8.39,1.69-14.04,6.61-18.81,13.58-12.88,18.79-19.64,40.32-27.92,61.14-4.29,10.81-11.4,18.65-20.51,25.44-15.12,11.26-24.95,6.98-37.3.05-2.81-1.58-2.78-4.7-.29-6.93,3.12-2.81,6.88-2.88,10.6-1.89,4.18,1.11,8.37,1.15,12.62,1.17,4.26.02,8.07-1.35,11.77-3.28,5.5-2.88,9.3-7.9,14.38-11.3,1.35-.9,1.88-2.64,2.37-4.18,3.4-10.57,7.66-20.82,11.04-31.41,3.52-11.04,9.43-21.16,15.33-31.17,2.22-3.76,4.45-7.42,7.63-10.56,12.65-12.5,30.93-10.3,40.05,4.98,3.94,6.59,6.44,13.74,8.6,21.07,1.58,5.36,3.05,10.83,7.21,14.99.58.58.94,1.49,1.16,2.31,4.14,15.26,20.3,24.52,37.01,22.9,12.2-1.18,20.29-7.94,29.03-14.71,7.54-5.84,12.99-13.96,20.85-19.3,14.4-9.78,27.29-11.1,41.69-1.17,6.66,4.59,8.47,11.18,8,18.95-.77,12.79-5.56,24.02-13.07,34.09-6.18,8.29-14.28,13.91-24.45,16.95-12.92,3.86-25.84,5.32-39.05,2.62-8.92-1.82-17.73-4.18-26.6-6.26-7.8-1.84-15.66-2.96-23.72-2.6-5.22.23-10.45-.2-15.69-.52-9.02-.57-17.91,1.06-26.46,3.99-7.78,2.67-15.46,5.66-23.11,8.7-5.84,2.32-11.1,5.56-15.49,10.22-6.06,6.44-12.79,12.28-17.03,20.27-2.3,4.32-4.33,8.71-5.09,13.59-1.37,8.79,3.36,14.47,12.29,14.07,8.11-.36,16.14-1.94,23.92-4.17,16.8-4.82,33.87-8.54,50.81-12.81,15.51-3.91,30.56-9.3,45.57-14.77,18.83-6.87,38.22-9.01,58.17-7.35,10.43.87,20.88,1.5,31.32,2.22,13.03.9,25.51,4.59,38.33,6.5,16.3,2.43,31.4,9.02,47.17,13.27,9.65,2.6,19.28,5.3,29.38,5.14,4.6-.07,9.13-.84,13.65-2.01,7.5-1.95,11.61-7.51,15.97-13.22,6.64-8.7,10.99-18.41,13.63-28.86,1.55-6.11.21-12.23-2.54-17.83-4.15-8.42-12.92-11.59-21.94-8.14-6.92,2.65-11.99,7.5-15.77,13.78-1,1.66-1.29,3.48-1.28,5.39.02,3.62,0,7.24,0,10.86Z"/>
  </g>
</svg>