<?xml version="1.0" encoding="UTF-8"?>
<svg id="Layer_2" data-name="Layer 2" xmlns="http://www.w3.org/2000/svg" viewBox="0 0 498.9 369.83">
  <defs>
    <style>
      .cls-1 {
        fill: #d9d8cc;
        stroke-width: 0px;
      }
    </style>
  </defs>
  <g id="Layer_1-2" data-name="Layer 1">
    <path class="cls-1" d="m304.68,43.57c12.16.77,25.84-.79,39.55-.87,8.53-.05,15.79-4.24,21.94-10,4.11-3.84,4.16-6.49-.28-9.93-10.78-8.32-22.61-14.62-36.48-15.86-14.31-1.29-28.63-.8-42.49,3.07-17.17,4.8-32.72,12.87-46.73,24.17-12.78,10.31-20.66,24.16-29.09,37.6-5.99,9.56-13.4,18.3-17.62,28.91-3.15,7.92-7.11,15.55-11.93,22.37-6.41,9.08-13.34,18.03-22.68,24.58-1.52,1.07-2.82,2.44-4.3,3.57-11.91,9.08-24.92,8.24-38.26,4.13-1.19-.37-2.31-.93-3.49-1.33-6.33-2.18-10.89-8.34-11.08-15.15-.68-23.47,13.11-41.35,33.02-50.56,7.31-3.38,14.59-6.97,21.37-11.47,6.82-4.53,14.74-7.18,21.45-11.96,4.12-2.93,7.89-6.04,8.18-11.76.19-3.68-.93-5.45-4.83-5.71-10.87-.72-21.1,1.73-30.45,7.2-13.13,7.68-23.97,17.95-33.79,29.58-7.93,9.4-16.49,18.28-24.43,27.7-2.48,2.94-4.95,5.95-7.21,9.02-8.47,11.5-18.08,22.16-25.59,34.37-.98,1.59-2.17,3.11-2.82,4.83-3.36,8.99-9.25,15.61-17.53,20.52-7.15,4.23-14.31,8.43-21.52,12.57-3.46,1.99-5.71,5.52-9.34,7.4-1.41.73-2.7,1.24-4.23.99-2.02-.33-3.52-1.45-3.97-3.47-.45-2.06,1.31-2.66,2.68-3.53,9.12-5.8,18.41-11.38,27.26-17.57,8.14-5.69,14.2-13.52,19.93-21.56,4.39-6.17,8.87-12.28,13.44-18.31,5.33-7.03,10.73-14.01,16.24-20.91,4.49-5.63,8.84-11.44,13.86-16.57,11.33-11.58,21.18-24.49,32.74-35.84,7.49-7.36,15.72-13.81,25.41-18.13,8.36-3.73,17.22-5.02,26.26-4.11,5.83.59,10.85,3.16,12.98,9.18,2.21,6.24-.63,11.23-4.12,16.22-4.65,6.65-11.24,9.93-18.69,12.08-11.51,3.32-22.09,8.67-31.52,15.91-9.72,7.46-18.19,16.16-23.77,27.44-2.72,5.49-4.83,10.86-4.32,17.06.36,4.32,2.21,7.6,6.36,9.22,14.2,5.56,27.14,3.57,38.25-7.06,8.81-8.43,17.94-16.66,24.34-27.25,4.98-8.23,8.08-17.42,12.76-25.8,6.37-11.42,13.52-22.35,20.79-33.22,5.26-7.87,10.52-15.73,17.26-22.42,9.66-9.59,20.73-17.23,33.53-21.9,9.44-3.45,18.75-7.57,28.83-8.92,22.17-2.98,44.13-4.32,64.69,7.51,6.48,3.73,12.17,8.19,17.15,13.65,2.75,3.02,1.67,9.72-2.07,12.79-8.24,6.78-17.61,10.27-28.42,10.67-14.58.54-29.18,1.14-43.74.49-12.65-.56-24.96,1.29-37.29,3.28-14.88,2.4-24.53,11.8-31.41,24.58-6.24,11.59-9.64,23.79-9.49,37.13.15,12.97,1.4,25.74,3.61,38.51,1.35,7.82-.56,15.56-2.61,23.17-3.32,12.29-9.44,23.16-16.08,33.92-4.96,8.04-10.77,14.99-17.74,21.39-12.83,11.78-23.07,25.78-31.02,41.29-6.3,12.28-12.86,24.61-15,38.42-2.36,15.25-2.22,30.51,3.58,45.2,1.72,4.35,5.08,7.32,8.92,9.77.81.52,1.7.99,2.79.9,6.45-.55,14.75-9.6,15-16.09.68-17.46.97-34.95,2.44-52.34.92-10.85,5.66-20.79,11.22-30.22,6.64-11.27,13.87-22.13,22.57-31.93,3.47-3.91,7.27-7.55,11-11.23,10.68-10.55,20.03-22.15,27.44-35.22,3.31-5.84,5.48-12.25,8.2-18.37,6.46-14.51,12.32-29.29,18.75-43.83,4.49-10.14,9.59-19.81,17.92-27.22,11.86-10.54,25.53-16.17,41.77-13.63,1.47.23,2.99.17,4.49.11,9.11-.37,18.12,1.13,27.17,1.38,17.19.48,34.09-2.55,51.03-5.27,13.77-2.21,26.78-6.66,39.37-12.19,7.46-3.27,14.36-7.97,21.14-12.58,3.95-2.69,5.61-7.53,8-11.6,2.59-4.39,5.11-8.77,6.12-13.93,1.14-5.85-.08-8.22-5.76-9.65-2.99-.75-5.11-2.54-6.22-5.41-.57-1.49-.34-2.9.83-4.15,1.16-1.23,2.27-1.39,3.98-.94,8.71,2.29,13.28,8.49,15.64,16.56,1.25,4.27-1.34,8.2-3.15,11.66-3.89,7.43-7.08,15.47-13.82,21.05-6.92,5.73-14.18,11.13-22.56,14.37-5.69,2.2-11.05,5.21-16.98,6.8-10.78,2.88-21.72,5.12-32.52,7.86-12.06,3.06-24.3,4.75-36.54,6.59-6.17.93-12.29-.9-18.42-1.6-5.03-.58-10.12-.48-15.08-.98-6.26-.63-12.06.12-18.02,1.55-9.9,2.38-18.39,7.15-26.15,13.68-6.39,5.38-11.44,11.65-15.78,18.71-2.85,4.64-4.15,9.84-6.14,14.76-7.19,17.76-13.74,35.78-22.65,52.79-4.29,8.19-9.39,15.76-15.98,22.41-11.48,11.57-23.3,22.88-32.69,36.33-7.79,11.15-14.45,22.99-20.29,35.25-2.19,4.61-2.83,9.98-2.69,14.92.42,15.36-3.54,30.44-2.46,45.79.07.99-.24,2.09.07,2.98,2.58,7.34-4,9.44-7.65,12.87-4.67,4.38-10.63,6.95-16.71,3.41-6.24-3.63-12.11-8.33-14.29-15.66-2.37-7.95-4.34-16.06-4.84-24.41-.9-15.14,3.14-29.23,8.78-43.1,6.67-16.41,15.73-31.27,26.61-45.21,4.78-6.12,9.87-11.78,15.61-16.96,13.23-11.95,19.38-27.34,21.71-44.64,1.35-10.08,4.04-19.92,5.49-30,1.76-12.24,2.75-24.35.71-36.68-.84-5.07-1.08-10.51.55-15.58,2.57-8,3.36-16.73,8.83-23.59,9.85-12.36,20.8-23.3,37.37-26,5.38-.87,10.82-1.32,16.23-1.99,9.31-1.15,18.66-.67,29.57-.78Z"/>
  </g>
</svg>