<?xml version="1.0" encoding="UTF-8"?>
<svg id="Layer_2" data-name="Layer 2" xmlns="http://www.w3.org/2000/svg" viewBox="0 0 351.95 282.26">
  <defs>
    <style>
      .cls-1 {
        fill: #d9b6a1;
        stroke-width: 0px;
      }
    </style>
  </defs>
  <g id="Layer_1-2" data-name="Layer 1">
    <path class="cls-1" d="m350.16,144.41c1.14,9.65-1.64,19.09-1.54,28.68.02,1.46-.26,3.08-.92,4.35-1.58,3.02-1.5,5.09,2.19,6.28,1.62.52,1.7,2.22,1.86,3.78.9,9.18-1.18,17.61-6.58,25.07-4.75,6.56-8.92,13.5-13.46,20.17-6.33,9.31-15.59,15.12-26.15,19.08-8.62,3.24-16.66,7.84-25.14,11.49-12.84,5.52-26.2,8.74-39.93,10.55-10.88,1.43-21.44,4.4-32.21,6.15-14.38,2.33-28.93,2.77-43.55,1.71-7.9-.57-15.86-.91-23.78-1.36-12.64-.73-25.32-1.44-37.85-3.67-10.18-1.81-20.39-3.41-30.09-7.14-15.37-5.9-29.58-13.82-41.74-25.06-6.54-6.05-10.69-13.59-13.71-21.97-6.38-17.7-11.87-35.66-15.79-54.05-2.62-12.29-2.17-24.77.13-37.11,2.11-11.35,3.45-22.84,7.25-33.87,2.09-6.07,4.58-11.83,8.18-17.12,5.26-7.72,9.2-16.31,15.39-23.39,6.41-7.34,13.69-13.76,21.59-19.48,10.5-7.6,21.13-15.02,31.51-22.77,8.46-6.31,18.31-8.04,28.32-9.57,8.72-1.33,17.41-2.83,26.14-4.13,10.41-1.55,20.85-1.19,31.28-.13,11.37,1.16,22.74,2.3,34.1,3.47,7.04.73,14.08,1.54,21.12,2.26,7.29.75,14.58,1.6,21.89,2.12,4.75.34,9.53,1.01,13.92,2.49,14.6,4.91,30.03,7.61,43.37,15.94,6.09,3.8,11.36,8.45,15.07,14.7.25.43.56.83.88,1.2,14.26,16.44,20.83,36.08,23.79,57.22,1.38,9.84,2.58,19.7,4.04,29.53.72,4.86.15,9.72.4,14.56Z"/>
  </g>
</svg>