<?xml version="1.0" encoding="UTF-8"?>
<svg id="Layer_2" data-name="Layer 2" xmlns="http://www.w3.org/2000/svg" viewBox="0 0 380.31 273.65">
  <defs>
    <style>
      .cls-1 {
        fill: #d3d2c4;
        stroke-width: 0px;
      }
    </style>
  </defs>
  <g id="Layer_1-2" data-name="Layer 1">
    <path class="cls-1" d="m274.36,273.52c-13.98.91-28.45-3.22-43.14-5.58-15.43-2.48-30.79-5.33-46.32-7.26-21.3-2.65-42.71-4.93-63.16-12.05-12.75-4.44-24.82-10.38-36.16-17.69-12.46-8.04-25.51-15.04-38.52-22.13-9.27-5.05-18.87-9.54-27.21-16.27-9.98-8.06-15.66-18.36-18.1-30.78-1.31-6.66-.78-13.39-1.28-20.07-1.01-13.5-.57-26.97,2.68-40.3,2.89-11.87,7.77-22.83,13.64-33.42,10.21-18.42,23.55-34.41,38.08-49.59C64.98,7.81,77.05,2.5,91.26.83c16.59-1.95,32.86-.54,48.58,4.9,9.51,3.29,18.61,7.75,27.91,11.65,23.77,9.97,47.7,19.6,70.78,31.13,16.55,8.26,31.6,18.81,45.85,30.62,10.27,8.51,20.21,17.35,29.63,26.78,15.34,15.36,28.59,32.47,41.33,49.97,6.07,8.33,12.19,16.68,17.56,25.46,3.72,6.09,6.88,12.61,7.35,20.13.47,7.46-1.78,13.91-5.62,20.11-5.91,9.53-12.19,18.81-18.91,27.76-6.2,8.26-14.91,13.06-24.79,15.73-18.16,4.92-36.47,8.9-56.57,8.44Z"/>
  </g>
</svg>