<svg width="44" height="27" viewBox="0 0 44 27" fill="none" xmlns="http://www.w3.org/2000/svg">
<path d="M0 27V0.445055H3.47937L3.88224 3.30082C4.46824 2.43544 5.27399 1.66896 6.29949 1.00137C7.32499 0.333791 8.64349 0 10.255 0C12.013 0 13.5634 0.420329 14.9064 1.26099C16.2493 2.10165 17.2992 3.25137 18.0561 4.71017C18.8374 6.16896 19.2281 7.82555 19.2281 9.67994C19.2281 11.5343 18.8374 13.1909 18.0561 14.6497C17.2992 16.0838 16.2493 17.2212 14.9064 18.0618C13.5634 18.8777 12.0008 19.2857 10.2184 19.2857C8.80219 19.2857 7.54474 19.0014 6.44599 18.4327C5.37166 17.864 4.51708 17.0604 3.88224 16.022V27H0ZM9.55911 15.8736C11.2194 15.8736 12.5868 15.3049 13.6611 14.1676C14.7354 13.0055 15.2726 11.4973 15.2726 9.64286C15.2726 8.43132 15.0284 7.35577 14.5401 6.41621C14.0518 5.47665 13.3803 4.74725 12.5257 4.22802C11.6711 3.68407 10.6823 3.41209 9.55911 3.41209C7.89878 3.41209 6.53145 3.99313 5.45712 5.15522C4.4072 6.31731 3.88224 7.81319 3.88224 9.64286C3.88224 11.4973 4.4072 13.0055 5.45712 14.1676C6.53145 15.3049 7.89878 15.8736 9.55911 15.8736Z" fill="black"/>
<path d="M29.5801 19.2857C27.2849 19.2857 25.3926 18.717 23.9032 17.5797C22.4138 16.4423 21.5592 14.9341 21.3395 13.0549H25.2583C25.4537 13.8956 25.9176 14.625 26.6501 15.2431C27.3826 15.8365 28.347 16.1332 29.5434 16.1332C30.7154 16.1332 31.57 15.886 32.1072 15.3915C32.6444 14.897 32.9129 14.3283 32.9129 13.6854C32.9129 12.7459 32.5345 12.1154 31.7776 11.794C31.0451 11.4478 30.0196 11.1387 28.7011 10.8668C27.6756 10.6442 26.6501 10.3475 25.6246 9.97665C24.6235 9.60577 23.7811 9.08654 23.0975 8.41896C22.4382 7.72665 22.1086 6.79945 22.1086 5.63736C22.1086 4.03022 22.719 2.69505 23.9398 1.63187C25.1607 0.543956 26.8698 0 29.0673 0C31.0939 0 32.7298 0.494505 33.9751 1.48352C35.2447 2.47253 35.9894 3.8695 36.2092 5.67445H32.4734C32.3514 4.88324 31.9851 4.26511 31.3747 3.82005C30.7887 3.375 29.9952 3.15247 28.9941 3.15247C28.0174 3.15247 27.2605 3.36264 26.7233 3.78297C26.1862 4.17857 25.9176 4.6978 25.9176 5.34066C25.9176 5.98352 26.2838 6.49038 27.0163 6.86126C27.7732 7.23214 28.7621 7.56593 29.983 7.86264C31.2038 8.13461 32.3269 8.45604 33.3524 8.82692C34.4024 9.17308 35.2447 9.69231 35.8796 10.3846C36.5144 11.0769 36.8318 12.0907 36.8318 13.4258C36.8562 15.1071 36.2092 16.5041 34.8907 17.6168C33.5966 18.7294 31.8264 19.2857 29.5801 19.2857Z" fill="black"/>
<path d="M41.5095 19.0632C40.777 19.0632 40.1666 18.8283 39.6783 18.3585C39.2143 17.864 38.9824 17.283 38.9824 16.6154C38.9824 15.9231 39.2143 15.342 39.6783 14.8723C40.1666 14.3777 40.777 14.1305 41.5095 14.1305C42.242 14.1305 42.8402 14.3777 43.3041 14.8723C43.768 15.342 44 15.9231 44 16.6154C44 17.283 43.768 17.864 43.3041 18.3585C42.8402 18.8283 42.242 19.0632 41.5095 19.0632Z" fill="black"/>
</svg>
